Coordinates
version=1
nRows=19
nColumns=34
inDegrees=yes

Units are S.I. units (second, meters, Newtons, ...)
If the header above contains a line with 'inDegrees', this indicates whether rotational values are in degrees (yes) or radians (no).

endheader
time	pelvis_tilt	pelvis_list	pelvis_rotation	pelvis_tx	pelvis_ty	pelvis_tz	hip_flexion_r	hip_adduction_r	hip_rotation_r	knee_angle_r	ankle_angle_r	subtalar_angle_r	mtp_angle_r	hip_flexion_l	hip_adduction_l	hip_rotation_l	knee_angle_l	ankle_angle_l	subtalar_angle_l	mtp_angle_l	lumbar_extension	lumbar_bending	lumbar_rotation	arm_flex_r	arm_add_r	arm_rot_r	elbow_flex_r	pro_sup_r	arm_flex_l	arm_add_l	arm_rot_l	elbow_flex_l	pro_sup_l
      0.00000000	      1.26013326	     -0.99656197	     -2.67314010	     -0.07062181	      1.26607527	     -0.05134748	     -5.21854085	      3.69456735	    -16.27511800	      0.00000000	     -9.34780453	     -5.34177037	      0.00000000	      0.38513066	     -3.11548191	    -14.58335409	      7.52119189	      1.31857913	     -9.15128420	      0.00000000	     -1.19213468	      1.95834939	      0.21617029	     -4.76414233	     -8.76427528	     14.32077725	     23.92864576	     72.69495014	      0.05431626	     -8.69519757	     21.42269871	     26.17863654	     70.24896260
      0.01666670	      0.23440895	      0.04684065	     -2.75421850	     -0.07185353	      1.26732124	     -0.05246072	     -3.35598746	      2.89484901	    -18.89966043	      0.00000000	     -8.24655829	     -2.40760733	      0.00000000	      0.62406077	     -1.85113474	    -18.38366217	      5.81312757	     -1.18806684	     -8.38064493	      0.00000000	      0.47674471	      1.07351566	      0.47538008	     -4.79410154	     -7.99282300	     11.74070135	     22.52793180	     72.33361431	      0.12639443	     -7.82346520	     19.72640195	     25.21457888	     70.25468799
      0.03333330	     -1.26739556	      0.65568702	     -3.39962310	     -0.07027333	      1.26619090	     -0.05169180	     -1.55387449	      2.60797290	    -20.04501957	      0.00000000	     -7.59776770	     -2.71942165	      0.00000000	      2.48905184	     -1.21802170	    -18.85231195	      5.90703899	     -0.50319411	     -7.53879192	      0.00000000	      2.52715201	      0.49526235	      0.72506571	     -5.15148102	     -7.69056667	     10.02196715	     22.73938763	     72.21081336	     -0.60442407	     -7.58495907	     18.72422208	     24.63376268	     70.40013079
      0.05000000	     -1.37097025	      0.66821733	     -3.62173263	     -0.06777125	      1.26363995	     -0.05213122	     -1.49886742	      2.46228003	    -19.49525634	      0.00000000	     -6.73338612	     -1.71204253	      0.00000000	      2.56027601	     -1.08238969	    -19.05489134	      5.65720371	      1.97234203	     -5.95835277	      0.00000000	      2.80777533	      0.52918667	      1.13233754	     -5.79575108	     -6.75655751	      2.88683622	     23.93293639	     72.39061130	     -1.12325475	     -6.80351493	     14.65000010	     24.41581325	     71.41823363
      0.06666670	     -1.41898524	      0.74792687	     -3.49767420	     -0.06517704	      1.26387029	     -0.05221537	     -1.69283093	      2.32200604	    -18.56436568	      0.00000000	     -6.12688138	     -1.75299701	      0.00000000	      2.37950891	     -0.88649042	    -18.31783038	      5.40231774	      2.70360214	     -6.04112306	      0.00000000	      3.19712693	      0.49149894	      1.14559164	     -6.01170259	     -6.62607840	      2.57471566	     24.17482745	     72.51632614	     -1.59571108	     -6.68597028	     14.49200820	     24.43028758	     71.54565536
      0.08333330	     -1.56894761	      0.63703176	     -3.35292473	     -0.06881203	      1.26285811	     -0.05215570	     -1.46277928	      2.47683305	    -16.65022459	      0.00000000	     -4.09903206	     -2.09783666	      0.00000000	      2.87266905	     -1.07896387	    -17.33033133	      5.59278391	      5.44968983	     -6.31906003	      0.00000000	      3.26653997	      0.59021517	      1.20422871	     -6.31300764	     -6.51304354	      1.52205299	     24.79539196	     72.79681160	     -1.65426482	     -6.56566465	     13.62733815	     25.01669074	     71.81216424
      0.10000000	     -1.79471272	      0.59566519	     -3.04736081	     -0.06752308	      1.26445887	     -0.05216948	     -1.16136717	      2.53089119	    -14.89297759	      0.00000000	     -3.03903660	     -2.11303440	      0.00000000	      3.33671331	     -1.25024942	    -17.41844264	      5.51490438	      7.87418161	     -3.85882086	      0.00000000	      3.15115582	      0.59820328	      1.15885303	     -7.09045134	     -5.96591299	     -2.28625312	     26.47861608	     74.37331848	     -2.21752782	     -6.31340237	     10.12175930	     26.48827546	     73.29948373
      0.11666670	     -1.79219591	      0.57467743	     -2.70453140	     -0.06789318	      1.26518389	     -0.05247089	     -1.15135236	      2.55915555	    -14.65785229	      0.00000000	     -3.00367497	     -2.03851132	      0.00000000	      3.45629020	     -1.29551706	    -17.39387179	      5.34551632	      7.96269388	     -3.89043734	      0.00000000	      3.02133504	      0.55008542	      1.15128307	     -7.12779439	     -5.91202720	     -2.28208220	     26.44978026	     74.39611699	     -2.21017450	     -6.28515995	     10.11274542	     26.48874857	     73.31951565
      0.13333330	     -1.63851367	      0.56013347	     -2.58565993	     -0.06901613	      1.26545483	     -0.05202092	     -1.31463045	      2.59102638	    -12.44998075	      0.00000000	     -1.67720598	     -1.71970546	      0.00000000	      3.47594587	     -1.30630541	    -16.34950210	      5.31554235	      9.36761670	     -3.86440048	      0.00000000	      2.65658995	      0.49966409	      0.92008834	     -7.11213294	     -5.83699220	     -2.35237326	     26.23284231	     74.77134603	     -1.88958140	     -6.27225799	      9.91030014	     26.66174398	     73.69630728
      0.15000000	     -1.57384379	      0.60958743	     -2.24327138	     -0.06988859	      1.26255800	     -0.05223257	     -1.33396987	      2.54489839	    -11.17077807	      0.00000000	     -0.04627315	     -1.61055457	      0.00000000	      3.54194245	     -1.22131090	    -15.63042915	      5.22544142	     10.16514724	     -3.04447265	      0.00000000	      2.45046319	      0.33762026	      0.64814559	     -7.09331616	     -5.79345073	     -2.36987488	     26.19478666	     75.21799552	     -1.77474397	     -6.36987159	      9.76941581	     26.74480615	     74.16186505
      0.16666670	     -1.57121507	      0.59051462	     -2.05215002	     -0.06884569	      1.26792058	     -0.05241134	     -1.32207086	      2.52963590	    -10.27280874	      0.00000000	      0.15245245	     -1.19105383	      0.00000000	      3.59968224	     -1.20425382	    -14.62576826	      5.14179295	     10.24049017	     -2.16237135	      0.00000000	      2.31786948	      0.24723646	      0.51655269	     -7.06469993	     -5.78473820	     -2.35908831	     26.18145476	     75.34879259	     -1.67831285	     -6.36049442	      9.74710059	     26.73309767	     74.29646649
      0.18333330	     -1.26022319	      0.55097729	     -1.86360561	     -0.06901767	      1.26570879	     -0.05186193	     -1.70797489	      2.58790393	     -9.78168921	      0.00000000	      1.14549331	     -0.64593529	      0.00000000	      3.20881976	     -1.31747073	    -15.57740708	      5.11371158	     11.96333644	      0.92841351	      0.00000000	      1.92088321	      0.21253484	      0.06251608	     -6.73481753	     -5.83031299	     -2.11130613	     26.00445215	     77.19243914	     -1.65998851	     -6.43440802	      9.59959585	     26.41652440	     76.18978207
      0.20000000	     -1.31184187	      0.65496461	     -1.71662454	     -0.06810779	      1.26538684	     -0.05210616	     -1.71530435	      2.49113761	     -9.39453533	      0.00000000	      1.07307387	     -0.71550495	      0.00000000	      2.90554816	     -1.19003103	    -15.73444735	      5.02313754	     10.82761674	      0.61222661	      0.00000000	      2.02314978	     -0.00499136	     -0.21634309	     -6.75094530	     -5.75762720	     -2.13814727	     26.08883664	     77.60247565	     -1.79602725	     -6.52909124	      9.57255011	     26.24773645	     76.63991102
      0.21666670	     -1.34409742	      0.54864298	     -1.56600845	     -0.06939768	      1.26192847	     -0.05196767	     -1.66871801	      2.62334254	     -8.56819265	      0.00000000	      1.77176680	     -0.64801080	      0.00000000	      2.81933795	     -1.35853704	    -16.07865680	      5.09062006	     10.66058912	     -0.28981176	      0.00000000	      1.92073355	      0.14263319	     -0.34248328	     -6.82733795	     -5.82123911	     -2.16264404	     26.21750686	     77.97701378	     -1.90953083	     -6.53514669	      9.58499146	     26.20659592	     77.05434522
      0.23333330	     -1.30602878	      0.53457639	     -1.32887231	     -0.06891026	      1.26396782	     -0.05120837	     -1.64298768	      2.65737584	     -7.56105613	      0.00000000	      2.72729184	     -0.39861252	      0.00000000	      2.78346947	     -1.41137390	    -15.59408379	      4.92252448	     10.61270337	     -0.25086869	      0.00000000	      1.94231771	      0.08007485	     -0.47894749	     -6.92122701	     -5.76171598	     -2.15442119	     26.34195935	     78.15769981	     -1.95987813	     -6.60338410	      9.59614267	     26.13721312	     77.24930094
      0.25000000	     -1.30440623	      0.53851142	     -1.29200255	     -0.06976781	      1.26532658	     -0.05162275	     -1.57569067	      2.64379468	     -6.61652194	      0.00000000	      4.67916987	     -0.11437566	      0.00000000	      2.83029692	     -1.37314592	    -15.05398770	      4.67709904	     10.92183723	     -0.01908977	      0.00000000	      1.81337561	      0.04748055	     -0.66629377	     -6.92234584	     -5.84524320	     -2.15561544	     26.70319004	     78.57184677	     -2.12020037	     -6.60330169	      9.66716524	     25.93095152	     77.69602283
      0.26666670	     -1.19856164	      0.48347140	     -1.15427982	     -0.07010318	      1.26317379	     -0.05154267	     -1.64323091	      2.68722812	     -6.00555111	      0.00000000	      6.18435933	      0.31569839	      0.00000000	      2.81447432	     -1.39579982	    -14.59722249	      4.50225112	     11.52720807	      0.54050937	      0.00000000	      1.64150555	      0.05319759	     -0.81519630	     -6.91030792	     -5.91961113	     -2.15131352	     27.08567141	     79.10364124	     -2.05001582	     -6.60766475	      9.76791093	     25.70404854	     78.26832272
      0.28333330	     -1.22033509	      0.47376215	     -1.13630835	     -0.06917645	      1.26124077	     -0.05116486	     -1.65948785	      2.69317289	     -5.99686130	      0.00000000	      6.18451249	      0.32014496	      0.00000000	      2.79786669	     -1.38423266	    -14.59181830	      4.51725197	     11.52337064	      0.54656463	      0.00000000	      1.64016003	      0.05097065	     -0.81048708	     -6.90675404	     -5.92109195	     -2.15162918	     27.08754855	     79.10532873	     -2.05683664	     -6.60707723	      9.76866767	     25.70069620	     78.27019392
      0.30000000	     -1.03206301	      0.41840380	     -0.91998355	     -0.07056767	      1.26182187	     -0.05136016	     -2.06582766	      2.74168909	     -5.44257032	      0.00000000	      6.44631436	      0.45160235	      0.00000000	      2.74820403	     -1.41302256	    -13.59490276	      4.70259523	     11.49004040	      1.35792376	      0.00000000	      1.55433796	      0.06893053	     -0.91649782	     -7.00077230	     -5.94402661	     -2.14706106	     27.16487146	     79.27552559	     -2.15209093	     -6.60060655	      9.83220483	     25.50288106	     78.45968389
